<?xml version="1.0" encoding="UTF-8"?>
<svg version="1.1" xmlns="http://www.w3.org/2000/svg" width="500" height="500">
<path d="M0 0 C165 0 330 0 500 0 C500 165 500 330 500 500 C335 500 170 500 0 500 C0 335 0 170 0 0 Z " fill="#FEFEFE" transform="translate(0,0)"/>
<path d="M0 0 C1.44345981 -0.0114292 2.88688047 -0.03173455 4.33007812 -0.06152344 C18.09381141 -0.3443507 30.26403953 2.20171069 43.18920898 6.98266602 C44.90430664 7.6072168 44.90430664 7.6072168 46.65405273 8.24438477 C49.25170898 9.29516602 49.25170898 9.29516602 50.25170898 10.29516602 C50.34026059 12.96142632 50.36695572 15.60163716 50.34936523 18.26782227 C50.34724281 19.46428627 50.34724281 19.46428627 50.34507751 20.68492126 C50.33946215 23.24254037 50.3269071 25.80007319 50.31420898 28.35766602 C50.30919596 30.08748246 50.30463271 31.81730028 50.30053711 33.54711914 C50.28948773 37.79650155 50.27221285 42.04581913 50.25170898 46.29516602 C47.84448242 45.9296875 47.84448242 45.9296875 45.25170898 45.29516602 C43.76733398 43.14282227 43.76733398 43.14282227 42.50170898 40.35766602 C35.17619742 25.94958076 23.17970835 17.62938568 8.25170898 12.29516602 C7.39061523 11.97418945 6.52952148 11.65321289 5.64233398 11.32250977 C-10.61070164 6.02796028 -26.74564237 9.56455054 -41.62329102 17.04516602 C-59.91142202 27.80935123 -69.34335067 46.39166533 -74.74829102 66.29516602 C-75.08989258 67.44887695 -75.43149414 68.60258789 -75.78344727 69.79125977 C-84.33315464 100.84019707 -79.406771 136.43805241 -63.74829102 164.29516602 C-53.62717098 180.70395581 -39.282085 190.50726924 -20.74829102 195.29516602 C-20.11173584 195.47023682 -19.47518066 195.64530762 -18.81933594 195.82568359 C-1.31023158 199.7947992 18.29145127 194.39888873 33.25170898 185.29516602 C45.01330605 177.34555237 50.89707689 163.3590623 55.25170898 150.29516602 C56.90170898 150.29516602 58.55170898 150.29516602 60.25170898 150.29516602 C60.25170898 163.49516602 60.25170898 176.69516602 60.25170898 190.29516602 C28.63880795 205.04785317 -4.23750392 212.58239945 -38.28735352 200.78735352 C-64.2679522 191.07754973 -84.20318028 171.57353745 -96.26782227 146.73266602 C-107.93597135 119.64039373 -109.14212427 92.04752089 -98.70996094 64.30371094 C-89.27163378 40.60280802 -72.28258716 22.99516145 -49.74829102 11.29516602 C-48.41217773 10.5874707 -48.41217773 10.5874707 -47.04907227 9.86547852 C-32.24896657 2.56741721 -16.33552177 0.08948469 0 0 Z " fill="#121212" transform="translate(261.748291015625,152.704833984375)"/>
<path d="M0 0 C0.33 0 0.66 0 1 0 C1.14695313 1.19496094 1.14695313 1.19496094 1.296875 2.4140625 C2.37734971 10.07052985 3.66235018 14.98797455 9.5625 20.3125 C13.51870237 23.05140934 16.98015715 23.23624852 21.6875 23.5625 C22.86699219 23.64628906 24.04648437 23.73007812 25.26171875 23.81640625 C26.61716797 23.90728516 26.61716797 23.90728516 28 24 C28 24.33 28 24.66 28 25 C27.0821875 25.08636719 26.164375 25.17273438 25.21875 25.26171875 C14.66889743 26.38162091 14.66889743 26.38162091 6 32 C2.37724033 36.96137467 1.43059872 41.97161793 1 48 C0.67 48 0.34 48 0 48 C-0.09796875 47.27554688 -0.1959375 46.55109375 -0.296875 45.8046875 C-1.18924695 40.0350413 -1.90899512 35.41397895 -6 31 C-10.33866817 28.2095318 -15.07250838 26.47824749 -20 25 C-20 24.67 -20 24.34 -20 24 C-18.80375 23.7525 -17.6075 23.505 -16.375 23.25 C-11.04631686 21.89429263 -7.44797176 19.60885751 -3.75 15.5 C-1.26298154 10.52596308 -0.67406312 5.4811975 0 0 Z " fill="#242928" transform="translate(254,234)"/>
<path d="M0 0 C0.33 0 0.66 0 1 0 C1.33 3.3 1.66 6.6 2 10 C1.01 10.66 0.02 11.32 -1 12 C-0.67 8.04 -0.34 4.08 0 0 Z " fill="#4B4F4E" transform="translate(254,234)"/>
</svg>
